<svg xmlns="http://www.w3.org/2000/svg" version="1.1" xmlns:xlink="http://www.w3.org/1999/xlink" xmlns:svgjs="http://svgjs.dev/svgjs" width="2000" height="424" viewBox="0 0 2000 424"><g transform="matrix(1,0,0,1,-1.2121212121212466,-0.32209134245727)"><svg viewBox="0 0 396 84" data-background-color="#ffffff" preserveAspectRatio="xMidYMid meet" height="424" width="2000" xmlns="http://www.w3.org/2000/svg" xmlns:xlink="http://www.w3.org/1999/xlink"><g id="tight-bounds" transform="matrix(1,0,0,1,0.2400000000000091,0.06381054897738636)"><svg viewBox="0 0 395.52 83.87237890204521" height="83.87237890204521" width="395.52"><g><svg viewBox="0 0 395.52 83.87237890204521" height="83.87237890204521" width="395.52"><g><svg viewBox="0 0 395.52 83.87237890204521" height="83.87237890204521" width="395.52"><g><svg viewBox="0 0 395.52 83.87237890204521" height="83.87237890204521" width="395.52"><g><svg viewBox="0 0 395.52 83.87237890204521" height="83.87237890204521" width="395.52"><g id="textblocktransform"><svg viewBox="0 0 395.52 83.87237890204521" height="83.87237890204521" width="395.52" id="textblock"><g><svg viewBox="0 0 395.52 83.87237890204521" height="83.87237890204521" width="395.52"><g transform="matrix(1,0,0,1,0,0)"><svg width="395.52" viewBox="2.75 -38.7 232.23 49.25" height="83.87237890204521" data-palette-color="#113f67"><path d="M30.15-34.4L32.8 0 28.35 0 27.3-15.55Q26.6-26 26.55-29.95L26.55-29.95 19.95-3.9 15.6-3.9 8.7-29.95Q8.75-25.6 8.15-15.45L8.15-15.45 7.15 0 2.75 0 5.4-34.4 11.45-34.4 17.85-8.95 24-34.4 30.15-34.4ZM39.6-26.3L44.1-26.3 44.1 0 39.6 0 39.6-26.3ZM41.85-38.7Q43.15-38.7 43.97-37.85 44.8-37 44.8-35.75L44.8-35.75Q44.8-34.5 44-33.68 43.2-32.85 41.85-32.85L41.85-32.85Q40.55-32.85 39.72-33.68 38.9-34.5 38.9-35.75L38.9-35.75Q38.9-37 39.72-37.85 40.55-38.7 41.85-38.7L41.85-38.7ZM63.95-26.95Q67.1-26.95 68.87-24.88 70.65-22.8 70.65-19.15L70.65-19.15 70.65 0 66.15 0 66.15-18.6Q66.15-21.15 65.3-22.28 64.45-23.4 62.7-23.4L62.7-23.4Q59.4-23.4 56.7-18.7L56.7-18.7 56.7 0 52.2 0 52.2-26.3 56.1-26.3 56.45-22.4Q59.5-26.95 63.95-26.95L63.95-26.95ZM92.74-37.45L97.24-36.95 97.24 0 93.24 0 92.94-3.45Q90.39 0.65 86.09 0.65L86.09 0.65Q81.79 0.65 79.42-3 77.04-6.65 77.04-13.05L77.04-13.05Q77.04-17.2 78.22-20.35 79.39-23.5 81.54-25.23 83.69-26.95 86.49-26.95L86.49-26.95Q90.24-26.95 92.74-23.8L92.74-23.8 92.74-37.45ZM87.14-2.9Q88.94-2.9 90.27-3.9 91.59-4.9 92.74-6.85L92.74-6.85 92.74-20.05Q90.49-23.4 87.49-23.4L87.49-23.4Q84.84-23.4 83.29-20.85 81.74-18.3 81.79-13.15L81.79-13.15Q81.79-7.9 83.19-5.4 84.59-2.9 87.14-2.9L87.14-2.9ZM131.44-34.4L134.09 0 129.64 0 128.59-15.55Q127.89-26 127.84-29.95L127.84-29.95 121.24-3.9 116.89-3.9 109.99-29.95Q110.04-25.6 109.44-15.45L109.44-15.45 108.44 0 104.04 0 106.69-34.4 112.74-34.4 119.14-8.95 125.29-34.4 131.44-34.4ZM140.89-26.3L145.39-26.3 145.39 0 140.89 0 140.89-26.3ZM143.14-38.7Q144.44-38.7 145.26-37.85 146.09-37 146.09-35.75L146.09-35.75Q146.09-34.5 145.29-33.68 144.49-32.85 143.14-32.85L143.14-32.85Q141.84-32.85 141.01-33.68 140.19-34.5 140.19-35.75L140.19-35.75Q140.19-37 141.01-37.85 141.84-38.7 143.14-38.7L143.14-38.7ZM165.24-26.95Q168.38-26.95 170.16-24.88 171.94-22.8 171.94-19.15L171.94-19.15 171.94 0 167.44 0 167.44-18.6Q167.44-21.15 166.59-22.28 165.74-23.4 163.99-23.4L163.99-23.4Q160.69-23.4 157.99-18.7L157.99-18.7 157.99 0 153.49 0 153.49-26.3 157.38-26.3 157.74-22.4Q160.78-26.95 165.24-26.95L165.24-26.95ZM197.88-29.15L199.13-25.35Q196.98-24.5 192.48-24.5L192.48-24.5Q196.68-22.4 196.68-17.6L196.68-17.6Q196.68-13.65 194.21-11.23 191.73-8.8 187.48-8.8L187.48-8.8Q185.88-8.8 184.58-9.3L184.58-9.3Q183.18-8.3 183.18-6.75L183.18-6.75Q183.18-4.4 186.48-4.4L186.48-4.4 189.93-4.4Q193.83-4.4 196.13-2.43 198.43-0.45 198.43 2.6L198.43 2.6Q198.43 6.3 195.58 8.43 192.73 10.55 187.23 10.55L187.23 10.55Q181.53 10.55 179.16 8.6 176.78 6.65 176.78 2.65L176.78 2.65 180.83 2.65Q180.83 4.3 181.41 5.28 181.98 6.25 183.36 6.73 184.73 7.2 187.28 7.2L187.28 7.2Q190.83 7.2 192.38 6.1 193.93 5 193.93 2.95L193.93 2.95Q193.93 1.05 192.66 0.05 191.38-0.95 189.03-0.95L189.03-0.95 186.08-0.95Q182.63-0.95 180.93-2.27 179.23-3.6 179.23-5.8L179.23-5.8Q179.23-8.35 181.98-10.35L181.98-10.35Q179.88-11.55 178.86-13.38 177.83-15.2 177.83-17.8L177.83-17.8Q177.83-21.9 180.43-24.4 183.03-26.9 187.28-26.9L187.28-26.9Q191.23-26.9 193.41-27.45 195.58-28 197.88-29.15L197.88-29.15ZM187.33-23.75Q184.88-23.75 183.61-22.23 182.33-20.7 182.33-17.8L182.33-17.8Q182.33-15 183.66-13.43 184.98-11.85 187.33-11.85L187.33-11.85Q192.28-11.85 192.28-17.85L192.28-17.85Q192.28-20.75 191.03-22.25 189.78-23.75 187.33-23.75L187.33-23.75ZM208.28 0.65Q205.88 0.65 204.48-0.8 203.08-2.25 203.08-4.85L203.08-4.85 203.08-36.95 207.58-37.45 207.58-5Q207.58-3.05 209.18-3.05L209.18-3.05Q209.83-3.05 210.63-3.35L210.63-3.35 211.63-0.2Q210.03 0.65 208.28 0.65L208.28 0.65ZM234.98-13.95Q234.98-12.9 234.88-11.6L234.88-11.6 219.58-11.6Q219.78-7 221.43-4.98 223.08-2.95 225.93-2.95L225.93-2.95Q227.73-2.95 229.15-3.5 230.58-4.05 232.13-5.3L232.13-5.3 234.13-2.65Q230.43 0.65 225.73 0.65L225.73 0.65Q220.58 0.65 217.75-2.93 214.93-6.5 214.93-12.95L214.93-12.95Q214.93-19.4 217.63-23.18 220.33-26.95 225.13-26.95L225.13-26.95Q229.88-26.95 232.43-23.58 234.98-20.2 234.98-13.95L234.98-13.95ZM230.63-14.75L230.63-15.3Q230.63-23.55 225.18-23.55L225.18-23.55Q222.68-23.55 221.23-21.48 219.78-19.4 219.58-14.75L219.58-14.75 230.63-14.75Z" opacity="1" transform="matrix(1,0,0,1,0,0)" fill="#113f67" class="wordmark-text-0" data-fill-palette-color="primary" id="text-0"></path></svg></g></svg></g></svg></g></svg></g><g></g></svg></g></svg></g></svg></g><defs></defs></svg><rect width="395.52" height="83.87237890204521" fill="none" stroke="none" visibility="hidden"></rect></g></svg></g></svg>